<svg data-name="レイヤー 1" xmlns="http://www.w3.org/2000/svg" viewBox="0 0 507.59 98"><path d="M201.14 21.46a24.15 24.15 0 1024.14 24.15 24.15 24.15 0 00-24.14-24.15zm0 37.56a13.42 13.42 0 1113.44-13.41 13.41 13.41 0 01-13.44 13.41zm51.64-37.56a24.15 24.15 0 1024.15 24.15 24.14 24.14 0 00-24.15-24.15zm0 37.56a13.42 13.42 0 1113.42-13.41 13.41 13.41 0 01-13.42 13.41zm67.26-22.6a24.39 24.39 0 00-12.38-13 21 21 0 00-9.06-2h-15.63a2.7 2.7 0 00-2.69 2.69v42.92a2.7 2.7 0 002.69 2.69h15.61a21.25 21.25 0 009.12-2 24.4 24.4 0 0012.35-13 24.15 24.15 0 000-18.32zm-11.94 14.6a11.88 11.88 0 01-6.87 7.08 15.06 15.06 0 01-5.71 1h-4.5v-27h4.5a14.93 14.93 0 015.65 1 12.08 12.08 0 014.23 2.82 12.2 12.2 0 012.66 4.29 15.07 15.07 0 01.95 5.38 15.67 15.67 0 01-.91 5.43zm105.91-8.74a13.57 13.57 0 1013.57 13.61 13.58 13.58 0 00-13.57-13.61zm0 21.4a7.83 7.83 0 117.83-7.83 7.83 7.83 0 01-7.83 7.87z"/><rect x="377.48" y="22.88" width="6.27" height="46.58" rx="2"/><rect x="390.88" y="22.88" width="6.27" height="46.58" rx="2"/><path d="M343.9 22.81a10.83 10.83 0 00-3.37-.68c-3.09 0-5.45 1-7.06 2.93q-1.77 2.09-1.77 7.17v10h-1.12a1.34 1.34 0 00-1.34 1.34v3.35a1.34 1.34 0 001.34 1.36h1.11v19.83a1.34 1.34 0 001.34 1.34h3.59a1.35 1.35 0 001.34-1.34V48.28h5.36a1.34 1.34 0 001.34-1.34v-3.35a1.34 1.34 0 00-1.34-1.34h-5.4v-8.52a11.5 11.5 0 01.58-4.46 2.25 2.25 0 012.24-1.19 7.8 7.8 0 013.31 1s.63.2.63-.55v-4.25c.01-1.25-.78-1.47-.78-1.47zm29.29 38.91l-3.57-2c-.82-.46-1.35.45-1.35.45a13.28 13.28 0 01-2.77 3.16 6.25 6.25 0 01-3.79 1.09 6.52 6.52 0 01-4.83-1.91 8 8 0 01-2.12-5.21h17a1.86 1.86 0 002.06-1.7q-.07-6.39-3.38-10a13.29 13.29 0 00-18.6.11 14.7 14.7 0 00-3.49 10.2q0 6.35 3.6 10.19a12.48 12.48 0 009.54 3.82 15.65 15.65 0 003.85-.44 11.69 11.69 0 003.3-1.37 13.82 13.82 0 002.86-2.4 18.56 18.56 0 002-2.61.93.93 0 00-.31-1.38zm-17.15-11.44a6.17 6.17 0 011.38-1.54 6 6 0 011.78-1 6.33 6.33 0 012.1-.34c3.27 0 5.34 1.63 6.19 4.91h-12.32a7.16 7.16 0 01.87-2.03zm114.95-7.68h-4.94c-.8 0-1.38 1-1.38 1l-6.51 14.36-6.2-14.44a1.84 1.84 0 00-1.47-.9 1.67 1.67 0 00-1.4.9l-6.16 14.44-6.62-14.44a1.55 1.55 0 00-1.31-.89h-4.95c-.78 0-.61 1.05-.61 1.05l12 24.75a1.78 1.78 0 001.43 1.06c1 0 1.45-1.14 1.45-1.14l6.18-14.14 6.21 14.38s.59.9 1.32.9a2 2 0 001.33-.82l12.16-25s.06-1.07-.53-1.07zm20.13 11.97c-1.29-1-3.67-2-7.12-3q-3.76-1-4-2.53a1.89 1.89 0 01.4-1.52 2 2 0 011.37-.76 2.94 2.94 0 012.6 1.12s.94.72 1.66.19l2.75-2a1.21 1.21 0 00.21-1.82 7.78 7.78 0 00-7.49-3.06 8.4 8.4 0 00-5.58 3.1 7.61 7.61 0 00-1.57 6.07 6.5 6.5 0 002 4.09 11.6 11.6 0 004.14 2.09c.68.22 1.35.44 2 .64s1.32.42 2 .64c1.74.72 2.68 1.63 2.84 2.72.26 1.89-.64 3-2.72 3.28a3.9 3.9 0 01-2.82-.66 7.5 7.5 0 01-1.29-1.31 1.41 1.41 0 00-1.7-.26l-3 1.94c-.93.46-.23 1.65-.23 1.66a9.54 9.54 0 009.7 4.13 9.69 9.69 0 006.31-3.39 8.48 8.48 0 001.94-6.85 6.7 6.7 0 00-2.4-4.51z"/><path d="M480.69 81.91h-.77c-.76 0-1.53-.08-2.28-.16a2.32 2.32 0 01-1.42-2.74 2.18 2.18 0 012.42-1.78 3.1 3.1 0 01.43 0h1.62a23.44 23.44 0 0015.47-5.83l.07-.06.06-.06a23.43 23.43 0 006.69-15.78v-.97a2.41 2.41 0 011.91-2.75 2.09 2.09 0 01.43 0 2.29 2.29 0 012.23 1.6v2.28a26.2 26.2 0 01-26.89 26.22zM169.13 35.06c2-.79.93-2.1.93-2.1a24.12 24.12 0 00-20.57-11.5h-1.34l-1.06.08h-.2l-1 .13h-.16q-.51.07-1 .18l-.26.05-1 .23-.19.05-.84.24-.26.08-.9.3-.31.12-.74.29-.35.15c-.24.1-.47.2-.69.31l-.36.17-.76.39-.38.21-.48.28-.54.32-.51.33-.43.29-.37.27-.69.51-.28.23c-.5.39-1 .81-1.45 1.24l-.18.18c-.27.26-.53.52-.79.8l-.13.13c-.46.49-.9 1-1.31 1.52a1.34 1.34 0 00-.11.14 23.47 23.47 0 00-2.37 3.67c-.19.36-.37.72-.54 1.09v.06c-.16.35-.31.7-.46 1.06a1.12 1.12 0 01-.05.13c-.13.33-.25.67-.37 1l-.06.19c-.11.32-.21.64-.31 1a1.82 1.82 0 01-.07.25c-.08.31-.16.62-.23.93 0 .11 0 .21-.07.31q-.1.45-.18.9l-.06.36c0 .29-.09.57-.13.86s0 .27 0 .41-.05.57-.07.85v.34c0 .48-.05 1-.05 1.46s0 1 .05 1.48l.06.76c0 .15 0 .3.05.45l.09.75c0 .12 0 .24.05.35.05.29.1.57.16.86 0 .12 0 .25.07.38s.12.55.19.82.07.26.1.39.15.53.23.8l.12.37c.07.23.15.46.23.69s.11.3.17.45.15.4.24.6.12.31.19.46l.28.63c.06.12.11.24.17.35l.3.59a24.9 24.9 0 002.42 3.74c.44.56.9 1.09 1.39 1.61q.45.48.93.93l.1.1c.48.45 1 .88 1.49 1.29l.23.18c.25.2.51.39.77.58l.31.21.45.32.44.27.62.38.45.26.39.22.75.38.37.18.67.3.38.16.72.29.32.11.89.31.28.08.82.23.2.06 1 .22.26.06 1 .18h.16q.48.07 1 .12h.2l1.06.08h2.68l1.06-.08h.2c.33 0 .65-.07 1-.12h.15l1-.18.26-.06 1-.22.19-.05.83-.24.27-.08.89-.31.32-.11.73-.29.36-.15.69-.31.36-.18.75-.38.38-.21.49-.28.53-.33.51-.32.43-.29.38-.27.68-.51.29-.23c.49-.4 1-.81 1.44-1.25l.18-.17.8-.8.13-.13c.45-.49.89-1 1.31-1.53a1.47 1.47 0 00.1-.13 23.47 23.47 0 002.37-3.67c.21-.39.4-.79.58-1.19a1.11 1.11 0 00.07-.16c.17-.37.32-.74.47-1.11l.06-.15.21-.57.12-.37c.09-.27.17-.54.25-.81s.1-.32.14-.49.09-.3.12-.45.14-.56.2-.85c0-.12.05-.25.07-.37.06-.3.11-.59.16-.88v-.25c0-.3.08-.6.11-.9v-.26c0-.34.06-.69.08-1v-1.33a25.25 25.25 0 00-.16-2.76h-19.11a4.7 4.7 0 100 9.4h7.23a13.77 13.77 0 01-20.1 4.54 13.73 13.73 0 01-5.68-10.05c0-.37-.05-.75-.05-1.13a14.13 14.13 0 01.07-1.46 13.76 13.76 0 0122.53-9.1c.2.17.39.34.57.52l.08.07c.17.16.33.32.48.49l.12.12c.15.16.28.32.42.48a2.52 2.52 0 003.07.74l5.81-2.32z"/><path d="M104.58 33.48c-.33-.75-1.64-3.06-3.47-3.63a4.47 4.47 0 00-2.44-.25 4.37 4.37 0 00-3.58 4.84v.75a18.28 18.28 0 01-19.51 18.42h-.75a4.38 4.38 0 00-5 3.31 4.43 4.43 0 001.52 4.48c2.05 1.91 7.11 4.36 18.67.94 6.59-1.95 7.36 1.14 5.17 5.88-10.6 18.32-25.93 20.57-31.82 20.71h-.19a36.43 36.43 0 1117.75-68.24c2.59 1.2 5.39 2.82 8-.41s-1.31-6.2-1.31-6.2a45.47 45.47 0 1017 19.43z" fill="#00cc6f"/><rect x="160.42" y="365.04" width="9.11" height="48.72" rx="4.55" transform="rotate(-45 -332.81 390.284)" fill="#f03c00"/><rect x="179.09" y="346.37" width="9.11" height="48.72" rx="4.55" transform="rotate(-45 -314.143 371.612)" fill="#ffae00"/><rect x="178.63" y="364.58" width="9.11" height="48.72" rx="4.55" transform="rotate(-45 -314.588 389.827)" fill="#00a0e6"/><rect x="197.3" y="345.92" width="9.11" height="48.72" rx="4.55" transform="rotate(-45 -295.923 371.155)" fill="#03edd0"/><path d="M37.97 26.19a36.23 36.23 0 017.39-5.48l-6.65-6.65a46.48 46.48 0 00-7.19 5.69z" fill="#966400"/><path d="M23.4 30.28l6.77 6.76a36.51 36.51 0 015-7.88l-6.46-6.46a45 45 0 00-5.31 7.58z" fill="#00739b"/><path d="M49.25 18.81a36.06 36.06 0 0110.33-2.53l-7.84-7.83A44.94 44.94 0 0042.42 12z" fill="#00bfa3"/><path d="M18.43 43.99l8.32 8.32a36.39 36.39 0 011.78-11.1l-7-7.05a45.44 45.44 0 00-3.1 9.83z" fill="#ad2500"/></svg>